<?xml version="1.0" encoding="UTF-8" standalone="no"?>
<svg xmlns="http://www.w3.org/2000/svg" contentScriptType="application/ecmascript" contentStyleType="text/css"
     height="603px" preserveAspectRatio="none" style="width:903px;height:603px;" version="1.1" viewBox="0 0 903 603"
     width="903px" zoomAndPan="magnify"><defs><filter height="300%" id="fd7lnaj1hqi7k" width="300%" x="-1" y="-1"><feGaussianBlur result="blurOut" stdDeviation="2.0"/><feColorMatrix in="blurOut" result="blurOut2" type="matrix" values="0 0 0 0 0 0 0 0 0 0 0 0 0 0 0 0 0 0 .4 0"/><feOffset dx="4.0" dy="4.0" in="blurOut2" result="blurOut3"/><feBlend in="SourceGraphic" in2="blurOut3" mode="normal"/></filter><filter height="1" id="bd7lnaj1hqi7k0" width="1" x="0" y="0"><feFlood flood-color="#ADD8E6" result="flood"/><feComposite in="SourceGraphic" in2="flood" operator="over"/></filter><filter height="1" id="bd7lnaj1hqi7k1" width="1" x="0" y="0"><feFlood flood-color="#90EE90" result="flood"/><feComposite in="SourceGraphic" in2="flood" operator="over"/></filter><filter height="1" id="bd7lnaj1hqi7k2" width="1" x="0" y="0"><feFlood flood-color="#F5F5DC" result="flood"/><feComposite in="SourceGraphic" in2="flood" operator="over"/></filter></defs><g><!--MD5=[45cc65665e32c8b85c4b741a6b52efc9]
entity analysis-model--><rect fill="#F5F5DC" filter="url(#fd7lnaj1hqi7k)" height="46.4883" style="stroke: #A80036; stroke-width: 1.5;" width="145" x="298" y="8"/><rect fill="#F5F5DC" height="10" style="stroke: #A80036; stroke-width: 1.5;" width="15" x="423" y="13"/><rect fill="#F5F5DC" height="2" style="stroke: #A80036; stroke-width: 1.5;" width="4" x="421" y="15"/><rect fill="#F5F5DC" height="2" style="stroke: #A80036; stroke-width: 1.5;" width="4" x="421" y="19"/><text fill="#000000" font-family="sans-serif" font-size="14" lengthAdjust="spacingAndGlyphs" textLength="105" x="313" y="41.5352">analysis-model</text><!--MD5=[f4d4e5cb22aa3f4309e294f87c80d98e]
entity codingstyle--><rect fill="#F5F5DC" filter="url(#fd7lnaj1hqi7k)" height="46.4883" style="stroke: #A80036; stroke-width: 1.5;" width="118" x="144.5" y="8"/><rect fill="#F5F5DC" height="10" style="stroke: #A80036; stroke-width: 1.5;" width="15" x="242.5" y="13"/><rect fill="#F5F5DC" height="2" style="stroke: #A80036; stroke-width: 1.5;" width="4" x="240.5" y="15"/><rect fill="#F5F5DC" height="2" style="stroke: #A80036; stroke-width: 1.5;" width="4" x="240.5" y="19"/><text fill="#000000" font-family="sans-serif" font-size="14" lengthAdjust="spacingAndGlyphs" textLength="78" x="159.5" y="41.5352">codingstyle</text><!--MD5=[786ee10a0e0a3ea213eb0029d56c298c]
entity analysis-model-api--><rect fill="#ADD8E6" filter="url(#fd7lnaj1hqi7k)" height="46.4883" style="stroke: #A80036; stroke-width: 1.5;" width="174" x="283.5" y="114"/><rect fill="#ADD8E6" height="10" style="stroke: #A80036; stroke-width: 1.5;" width="15" x="437.5" y="119"/><rect fill="#ADD8E6" height="2" style="stroke: #A80036; stroke-width: 1.5;" width="4" x="435.5" y="121"/><rect fill="#ADD8E6" height="2" style="stroke: #A80036; stroke-width: 1.5;" width="4" x="435.5" y="125"/><text fill="#000000" font-family="sans-serif" font-size="14" lengthAdjust="spacingAndGlyphs" textLength="134" x="298.5" y="147.5352">analysis-model-api</text><!--MD5=[18e59f0a92f476380cfa0e5522f3c0c0]
entity boostrap4-api--><rect fill="#90EE90" filter="url(#fd7lnaj1hqi7k)" height="46.4883" style="stroke: #A80036; stroke-width: 1.5;" width="140" x="547.5" y="326"/><rect fill="#90EE90" height="10" style="stroke: #A80036; stroke-width: 1.5;" width="15" x="667.5" y="331"/><rect fill="#90EE90" height="2" style="stroke: #A80036; stroke-width: 1.5;" width="4" x="665.5" y="333"/><rect fill="#90EE90" height="2" style="stroke: #A80036; stroke-width: 1.5;" width="4" x="665.5" y="337"/><text fill="#000000" font-family="sans-serif" font-size="14" lengthAdjust="spacingAndGlyphs" textLength="100" x="562.5" y="359.5352">boostrap4-api</text><!--MD5=[31985fcb658741654f0cd57742cc85b1]
entity datatables-api--><rect fill="#90EE90" filter="url(#fd7lnaj1hqi7k)" height="46.4883" style="stroke: #A80036; stroke-width: 1.5;" width="140" x="215.5" y="326"/><rect fill="#90EE90" height="10" style="stroke: #A80036; stroke-width: 1.5;" width="15" x="335.5" y="331"/><rect fill="#90EE90" height="2" style="stroke: #A80036; stroke-width: 1.5;" width="4" x="333.5" y="333"/><rect fill="#90EE90" height="2" style="stroke: #A80036; stroke-width: 1.5;" width="4" x="333.5" y="337"/><text fill="#000000" font-family="sans-serif" font-size="14" lengthAdjust="spacingAndGlyphs" textLength="100" x="230.5" y="359.5352">datatables-api</text><!--MD5=[4cbb0e49a767b0ff652a6b796918a215]
entity jquery3-api--><rect fill="#90EE90" filter="url(#fd7lnaj1hqi7k)" height="46.4883" style="stroke: #A80036; stroke-width: 1.5;" width="121" x="391" y="326"/><rect fill="#90EE90" height="10" style="stroke: #A80036; stroke-width: 1.5;" width="15" x="492" y="331"/><rect fill="#90EE90" height="2" style="stroke: #A80036; stroke-width: 1.5;" width="4" x="490" y="333"/><rect fill="#90EE90" height="2" style="stroke: #A80036; stroke-width: 1.5;" width="4" x="490" y="337"/><text fill="#000000" font-family="sans-serif" font-size="14" lengthAdjust="spacingAndGlyphs" textLength="81" x="406" y="359.5352">jquery3-api</text><!--MD5=[a556d2e10cb329a761d08fb170deb74f]
entity font-awesome-api--><rect fill="#90EE90" filter="url(#fd7lnaj1hqi7k)" height="46.4883" style="stroke: #A80036; stroke-width: 1.5;" width="169" x="723" y="326"/><rect fill="#90EE90" height="10" style="stroke: #A80036; stroke-width: 1.5;" width="15" x="872" y="331"/><rect fill="#90EE90" height="2" style="stroke: #A80036; stroke-width: 1.5;" width="4" x="870" y="333"/><rect fill="#90EE90" height="2" style="stroke: #A80036; stroke-width: 1.5;" width="4" x="870" y="337"/><text fill="#000000" font-family="sans-serif" font-size="14" lengthAdjust="spacingAndGlyphs" textLength="129" x="738" y="359.5352">font-awesome-api</text><!--MD5=[8367e42b50c5f3a8fff30e1e58cf5cea]
entity echarts-api--><rect fill="#90EE90" filter="url(#fd7lnaj1hqi7k)" height="46.4883" style="stroke: #A80036; stroke-width: 1.5;" width="119" x="61" y="326"/><rect fill="#90EE90" height="10" style="stroke: #A80036; stroke-width: 1.5;" width="15" x="160" y="331"/><rect fill="#90EE90" height="2" style="stroke: #A80036; stroke-width: 1.5;" width="4" x="158" y="333"/><rect fill="#90EE90" height="2" style="stroke: #A80036; stroke-width: 1.5;" width="4" x="158" y="337"/><text fill="#000000" font-family="sans-serif" font-size="14" lengthAdjust="spacingAndGlyphs" textLength="79" x="76" y="359.5352">echarts-api</text><!--MD5=[ed360a6a2db13ad32c89f4b8a17443d7]
entity plugin-util-api--><rect fill="#90EE90" filter="url(#fd7lnaj1hqi7k)" height="46.4883" style="stroke: #A80036; stroke-width: 1.5;" width="143" x="129" y="220"/><rect fill="#90EE90" height="10" style="stroke: #A80036; stroke-width: 1.5;" width="15" x="252" y="225"/><rect fill="#90EE90" height="2" style="stroke: #A80036; stroke-width: 1.5;" width="4" x="250" y="227"/><rect fill="#90EE90" height="2" style="stroke: #A80036; stroke-width: 1.5;" width="4" x="250" y="231"/><text fill="#000000" font-family="sans-serif" font-size="14" lengthAdjust="spacingAndGlyphs" textLength="103" x="144" y="253.5352">plugin-util-api</text><!--MD5=[f80caf1e9846eec8abac37375503e64f]
entity warnings-ng--><rect fill="#ADD8E6" filter="url(#fd7lnaj1hqi7k)" height="46.4883" style="stroke: #A80036; stroke-width: 1.5;" width="129" x="307" y="220"/><rect fill="#ADD8E6" height="10" style="stroke: #A80036; stroke-width: 1.5;" width="15" x="416" y="225"/><rect fill="#ADD8E6" height="2" style="stroke: #A80036; stroke-width: 1.5;" width="4" x="414" y="227"/><rect fill="#ADD8E6" height="2" style="stroke: #A80036; stroke-width: 1.5;" width="4" x="414" y="231"/><text fill="#000000" font-family="sans-serif" font-size="14" lengthAdjust="spacingAndGlyphs" textLength="89" x="322" y="253.5352">warnings-ng</text><!--MD5=[66ce8ecc631289174b36e615e815e45a]
entity forensics--><rect fill="#ADD8E6" filter="url(#fd7lnaj1hqi7k)" height="46.4883" style="stroke: #A80036; stroke-width: 1.5;" width="102" x="471.5" y="220"/><rect fill="#ADD8E6" height="10" style="stroke: #A80036; stroke-width: 1.5;" width="15" x="553.5" y="225"/><rect fill="#ADD8E6" height="2" style="stroke: #A80036; stroke-width: 1.5;" width="4" x="551.5" y="227"/><rect fill="#ADD8E6" height="2" style="stroke: #A80036; stroke-width: 1.5;" width="4" x="551.5" y="231"/><text fill="#000000" font-family="sans-serif" font-size="14" lengthAdjust="spacingAndGlyphs" textLength="62" x="486.5" y="253.5352">forensics</text><!--MD5=[55c9e0f1b14bb2093107381dd6d8d5fc]
entity git-forensics--><rect fill="#ADD8E6" filter="url(#fd7lnaj1hqi7k)" height="46.4883" style="stroke: #A80036; stroke-width: 1.5;" width="128" x="608.5" y="220"/><rect fill="#ADD8E6" height="10" style="stroke: #A80036; stroke-width: 1.5;" width="15" x="716.5" y="225"/><rect fill="#ADD8E6" height="2" style="stroke: #A80036; stroke-width: 1.5;" width="4" x="714.5" y="227"/><rect fill="#ADD8E6" height="2" style="stroke: #A80036; stroke-width: 1.5;" width="4" x="714.5" y="231"/><text fill="#000000" font-family="sans-serif" font-size="14" lengthAdjust="spacingAndGlyphs" textLength="88" x="623.5" y="253.5352">git-forensics</text><!--MD5=[e06fae554e9fc92422691daab4efbd51]
entity git-client--><rect fill="#90EE90" filter="url(#fd7lnaj1hqi7k)" height="46.4883" style="stroke: #A80036; stroke-width: 1.5;" width="103" x="772" y="220"/><rect fill="#90EE90" height="10" style="stroke: #A80036; stroke-width: 1.5;" width="15" x="855" y="225"/><rect fill="#90EE90" height="2" style="stroke: #A80036; stroke-width: 1.5;" width="4" x="853" y="227"/><rect fill="#90EE90" height="2" style="stroke: #A80036; stroke-width: 1.5;" width="4" x="853" y="231"/><text fill="#000000" font-family="sans-serif" font-size="14" lengthAdjust="spacingAndGlyphs" textLength="63" x="787" y="253.5352">git-client</text><!--MD5=[509c5857fda3214765c7775b9833f866]
entity datatables-model--><rect fill="#FEFECE" filter="url(#fd7lnaj1hqi7k)" height="46.4883" style="stroke: #A80036; stroke-width: 1.5;" width="162" x="226.5" y="432"/><rect fill="#FEFECE" height="10" style="stroke: #A80036; stroke-width: 1.5;" width="15" x="368.5" y="437"/><rect fill="#FEFECE" height="2" style="stroke: #A80036; stroke-width: 1.5;" width="4" x="366.5" y="439"/><rect fill="#FEFECE" height="2" style="stroke: #A80036; stroke-width: 1.5;" width="4" x="366.5" y="443"/><text fill="#000000" font-family="sans-serif" font-size="14" lengthAdjust="spacingAndGlyphs" textLength="122" x="241.5" y="465.5352">datatables-model</text><!--MD5=[4ad4d819b111f2601e9859bffb1701ee]
entity echarts-build-trends--><rect fill="#FEFECE" filter="url(#fd7lnaj1hqi7k)" height="46.4883" style="stroke: #A80036; stroke-width: 1.5;" width="185" x="6" y="432"/><rect fill="#FEFECE" height="10" style="stroke: #A80036; stroke-width: 1.5;" width="15" x="171" y="437"/><rect fill="#FEFECE" height="2" style="stroke: #A80036; stroke-width: 1.5;" width="4" x="169" y="439"/><rect fill="#FEFECE" height="2" style="stroke: #A80036; stroke-width: 1.5;" width="4" x="169" y="443"/><text fill="#000000" font-family="sans-serif" font-size="14" lengthAdjust="spacingAndGlyphs" textLength="145" x="21" y="465.5352">echarts-build-trends</text><!--MD5=[53ca3774e7d34ff1a18f2ed652187a26]
reverse link codingstyle to analysis-model--><path d="M267.8,31 C277.85,31 287.91,31 297.96,31 " fill="none" id="codingstyle&lt;-analysis-model" style="stroke: #A80036; stroke-width: 1.0; stroke-dasharray: 7.0,7.0;"/><polygon fill="#A80036" points="262.54,31,271.54,35,267.54,31,271.54,27,262.54,31" style="stroke: #A80036; stroke-width: 1.0;"/><!--MD5=[ad29d37d629a7107b22b2b733698c5a3]
reverse link analysis-model to analysis-model-api--><path d="M370.5,59.19 C370.5,76.26 370.5,97.99 370.5,113.98 " fill="none" id="analysis-model&lt;-analysis-model-api" style="stroke: #A80036; stroke-width: 1.0; stroke-dasharray: 7.0,7.0;"/><polygon fill="#A80036" points="370.5,54.06,366.5,63.06,370.5,59.06,374.5,63.06,370.5,54.06" style="stroke: #A80036; stroke-width: 1.0;"/><!--MD5=[32101d7efb5d41d00b160b91140c0b4d]
reverse link analysis-model-api to warnings-ng--><path d="M370.76,165.19 C370.93,182.26 371.13,203.99 371.29,219.98 " fill="none" id="analysis-model-api&lt;-warnings-ng" style="stroke: #A80036; stroke-width: 1.0; stroke-dasharray: 7.0,7.0;"/><polygon fill="#A80036" points="370.71,160.06,366.7873,169.094,370.7529,165.0598,374.787,169.0254,370.71,160.06" style="stroke: #A80036; stroke-width: 1.0;"/><!--MD5=[dbe0b5b85f4af72fdce7e9f9d8f6aa4d]
link warnings-ng to forensics--><path d="M436.09,243 C446.05,243 456.02,243 465.98,243 " fill="none" id="warnings-ng-&gt;forensics" style="stroke: #A80036; stroke-width: 1.0; stroke-dasharray: 7.0,7.0;"/><polygon fill="#A80036" points="471.19,243,462.19,239,466.19,243,462.19,247,471.19,243" style="stroke: #A80036; stroke-width: 1.0;"/><!--MD5=[480ca3e40cbaa711e9ababcb968d6cce]
reverse link forensics to git-forensics--><path d="M578.92,243 C588.77,243 598.63,243 608.48,243 " fill="none" id="forensics&lt;-git-forensics" style="stroke: #A80036; stroke-width: 1.0; stroke-dasharray: 7.0,7.0;"/><polygon fill="#A80036" points="573.77,243,582.77,247,578.77,243,582.77,239,573.77,243" style="stroke: #A80036; stroke-width: 1.0;"/><!--MD5=[c87620a152691deea589eb3e615eab81]
link git-forensics to git-client--><path d="M736.79,243 C746.7,243 756.6,243 766.5,243 " fill="none" id="git-forensics-&gt;git-client" style="stroke: #A80036; stroke-width: 1.0; stroke-dasharray: 7.0,7.0;"/><polygon fill="#A80036" points="771.68,243,762.68,239,766.68,243,762.68,247,771.68,243" style="stroke: #A80036; stroke-width: 1.0;"/><!--MD5=[25b704512921f574146ebbf7d95d42f6]
link warnings-ng to jquery3-api--><path d="M388.47,266.06 C400.98,282.33 418.06,304.53 431.28,321.72 " fill="none" id="warnings-ng-&gt;jquery3-api" style="stroke: #A80036; stroke-width: 1.0; stroke-dasharray: 7.0,7.0;"/><polygon fill="#A80036" points="434.56,325.98,432.2614,316.4031,431.519,322.011,425.9111,321.2687,434.56,325.98" style="stroke: #A80036; stroke-width: 1.0;"/><!--MD5=[9b97f02119d5ef9d12676295ddaac604]
link warnings-ng to datatables-api--><path d="M353.26,266.06 C339.81,282.33 321.45,304.53 307.23,321.72 " fill="none" id="warnings-ng-&gt;datatables-api" style="stroke: #A80036; stroke-width: 1.0; stroke-dasharray: 7.0,7.0;"/><polygon fill="#A80036" points="303.71,325.98,312.5254,321.588,306.894,322.1249,306.3572,316.4936,303.71,325.98" style="stroke: #A80036; stroke-width: 1.0;"/><!--MD5=[f90a3de97a0f6f08d7f1c042b2695cc6]
link warnings-ng to boostrap4-api--><path d="M423.67,266.06 C463.87,283.05 519.38,306.52 560.69,323.98 " fill="none" id="warnings-ng-&gt;boostrap4-api" style="stroke: #A80036; stroke-width: 1.0; stroke-dasharray: 7.0,7.0;"/><polygon fill="#A80036" points="565.4,325.98,558.6655,318.7935,560.794,324.0346,555.5528,326.1631,565.4,325.98" style="stroke: #A80036; stroke-width: 1.0;"/><!--MD5=[039b8ecd7abc7d92356ba06da6f11399]
link warnings-ng to font-awesome-api--><path d="M436.24,261.37 C442.41,262.96 448.57,264.53 454.5,266 C543.79,288.2 646.26,311.79 717.71,327.95 " fill="none" id="warnings-ng-&gt;font-awesome-api" style="stroke: #A80036; stroke-width: 1.0; stroke-dasharray: 7.0,7.0;"/><polygon fill="#A80036" points="722.8,329.1,714.9021,323.2159,717.9228,327.9987,713.14,331.0194,722.8,329.1" style="stroke: #A80036; stroke-width: 1.0;"/><!--MD5=[8ebebf6e36bf0b55fe47bfe5539c2784]
link warnings-ng to echarts-api--><path d="M318.27,266.06 C277.25,283.05 220.62,306.52 178.46,323.98 " fill="none" id="warnings-ng-&gt;echarts-api" style="stroke: #A80036; stroke-width: 1.0; stroke-dasharray: 7.0,7.0;"/><polygon fill="#A80036" points="173.65,325.98,183.4958,326.2259,178.2683,324.064,180.4302,318.8366,173.65,325.98" style="stroke: #A80036; stroke-width: 1.0;"/><!--MD5=[29be46adaff7696bcbdba8e1cd53ba0b]
reverse link plugin-util-api to warnings-ng--><path d="M277.43,243 C287.21,243 297,243 306.79,243 " fill="none" id="plugin-util-api&lt;-warnings-ng" style="stroke: #A80036; stroke-width: 1.0; stroke-dasharray: 7.0,7.0;"/><polygon fill="#A80036" points="272.31,243,281.31,247,277.31,243,281.31,239,272.31,243" style="stroke: #A80036; stroke-width: 1.0;"/><!--MD5=[7abdabed2fa7bb38410fcd22b9898cd0]
reverse link codingstyle to plugin-util-api--><path d="M203.11,59.26 C202.51,101.32 201.37,181.21 200.82,219.9 " fill="none" id="codingstyle&lt;-plugin-util-api" style="stroke: #A80036; stroke-width: 1.0; stroke-dasharray: 7.0,7.0;"/><polygon fill="#A80036" points="203.18,54.08,199.0518,63.0219,203.1086,59.0795,207.051,63.1362,203.18,54.08" style="stroke: #A80036; stroke-width: 1.0;"/><!--MD5=[c2991a04d0bfed605d3b4e084e65055a]
link datatables-api to jquery3-api--><path d="M355.53,349 C365.53,349 375.54,349 385.54,349 " fill="none" id="datatables-api-&gt;jquery3-api" style="stroke: #A80036; stroke-width: 1.0; stroke-dasharray: 7.0,7.0;"/><polygon fill="#A80036" points="390.77,349,381.77,345,385.77,349,381.77,353,390.77,349" style="stroke: #A80036; stroke-width: 1.0;"/><!--MD5=[5dd1902ceacd1bea536625d44dadf522]
reverse link jquery3-api to boostrap4-api--><path d="M517.32,349 C527.25,349 537.18,349 547.12,349 " fill="none" id="jquery3-api&lt;-boostrap4-api" style="stroke: #A80036; stroke-width: 1.0; stroke-dasharray: 7.0,7.0;"/><polygon fill="#A80036" points="512.13,349,521.13,353,517.13,349,521.13,345,512.13,349" style="stroke: #A80036; stroke-width: 1.0;"/><!--MD5=[a557a45dc2b1cbd76b699212c0fd147f]
link datatables-api to datatables-model--><path d="M290.17,372.06 C293.55,388.05 298.15,409.78 301.75,426.84 " fill="none" id="datatables-api-&gt;datatables-model" style="stroke: #A80036; stroke-width: 1.0; stroke-dasharray: 7.0,7.0;"/><polygon fill="#A80036" points="302.84,431.98,304.8789,422.3445,301.7992,427.0895,297.0541,424.0098,302.84,431.98" style="stroke: #A80036; stroke-width: 1.0;"/><!--MD5=[d048ef6f5af07cedbb83a4ee2f766368]
link echarts-api to echarts-build-trends--><path d="M115.83,372.06 C112.45,388.05 107.85,409.78 104.25,426.84 " fill="none" id="echarts-api-&gt;echarts-build-trends" style="stroke: #A80036; stroke-width: 1.0; stroke-dasharray: 7.0,7.0;"/><polygon fill="#A80036" points="103.16,431.98,108.9459,424.0098,104.2008,427.0895,101.1211,422.3445,103.16,431.98" style="stroke: #A80036; stroke-width: 1.0;"/><!--MD5=[66f68a2f35895cf730d540c807fdff08]
link echarts-api to plugin-util-api--><path d="M137.44,325.98 C149.95,309.71 167.03,287.51 180.26,270.31 " fill="none" id="echarts-api-&gt;plugin-util-api" style="stroke: #A80036; stroke-width: 1.0; stroke-dasharray: 7.0,7.0;"/><polygon fill="#A80036" points="183.53,266.06,174.8623,270.7367,180.4732,270.0167,181.1931,275.6276,183.53,266.06" style="stroke: #A80036; stroke-width: 1.0;"/><rect fill="#FFFFFF" height="96.4414" rx="5" ry="5" style="stroke: #000000; stroke-width: 1.0;" width="144" x="382.5" y="496"/><text fill="#000000" font-family="sans-serif" font-size="14" font-weight="bold" lengthAdjust="spacingAndGlyphs" textLength="0" x="393.5" y="516.5352"/><text fill="#000000" font-family="sans-serif" font-size="14" font-weight="bold" lengthAdjust="spacingAndGlyphs" textLength="89" x="405.5" y="516.5352">Module type</text><text fill="#000000" filter="url(#bd7lnaj1hqi7k0)" font-family="sans-serif" font-size="14" lengthAdjust="spacingAndGlyphs" textLength="0" x="400.5" y="533.0234"/><text fill="#000000" font-family="sans-serif" font-size="14" lengthAdjust="spacingAndGlyphs" textLength="112" x="404.5" y="533.0234">Warnings plugin</text><text fill="#000000" filter="url(#bd7lnaj1hqi7k1)" font-family="sans-serif" font-size="14" lengthAdjust="spacingAndGlyphs" textLength="0" x="400.5" y="549.5117"/><text fill="#000000" font-family="sans-serif" font-size="14" lengthAdjust="spacingAndGlyphs" textLength="101" x="404.5" y="549.5117">New UI Plugins</text><text fill="#000000" filter="url(#bd7lnaj1hqi7k2)" font-family="sans-serif" font-size="14" lengthAdjust="spacingAndGlyphs" textLength="0" x="400.5" y="566"/><text fill="#000000" font-family="sans-serif" font-size="14" lengthAdjust="spacingAndGlyphs" textLength="90" x="404.5" y="566">Java Libraries</text><line style="stroke: #000000; stroke-width: 1.0;" x1="388.5" x2="520.5" y1="503" y2="503"/><line style="stroke: #000000; stroke-width: 1.0;" x1="388.5" x2="520.5" y1="519.4883" y2="519.4883"/><line style="stroke: #000000; stroke-width: 1.0;" x1="388.5" x2="520.5" y1="535.9766" y2="535.9766"/><line style="stroke: #000000; stroke-width: 1.0;" x1="388.5" x2="520.5" y1="552.4648" y2="552.4648"/><line style="stroke: #000000; stroke-width: 1.0;" x1="388.5" x2="520.5" y1="568.9531" y2="568.9531"/><line style="stroke: #000000; stroke-width: 1.0;" x1="388.5" x2="388.5" y1="503" y2="568.9531"/><line style="stroke: #000000; stroke-width: 1.0;" x1="400.5" x2="400.5" y1="503" y2="568.9531"/><line style="stroke: #000000; stroke-width: 1.0;" x1="520.5" x2="520.5" y1="503" y2="568.9531"/><text fill="#000000" font-family="sans-serif" font-size="14" lengthAdjust="spacingAndGlyphs" textLength="0" x="392.5" y="584.4883"/><!--MD5=[5ceeefd53b07ed1309336487b0098f19]
@startuml

skinparam componentStyle uml2

skinparam component {
  BackgroundColor<<optional>> beige
  BackgroundColor<<test>> lightGreen
  BackgroundColor<<runtime>> lightBlue
  BackgroundColor<<provided>> lightGray
}

component [analysis-model] #beige
component [codingstyle] #beige

[analysis-model] .left.> [codingstyle]

component [analysis-model-api] #lightBlue

component [boostrap4-api] #lightGreen
component [datatables-api] #lightGreen
component [jquery3-api] #lightGreen
component [font-awesome-api] #lightGreen
component [echarts-api] #lightGreen
component [plugin-util-api] #lightGreen

component [echarts-api] #lightGreen

component [warnings-ng] #lightBlue
component [forensics] #lightBlue
component [git-forensics] #lightBlue

component [git-client] #lightGreen

[analysis-model-api] .up.> [analysis-model]
[warnings-ng] .up.> [analysis-model-api]
[warnings-ng] .right.> [forensics]
[git-forensics] .left.> [forensics]
[git-client] <.left. [git-forensics]

[warnings-ng] ..> [jquery3-api]
[warnings-ng] ..> [datatables-api]
[warnings-ng] ..> [boostrap4-api]
[warnings-ng] ..> [font-awesome-api]
[warnings-ng] ..> [echarts-api]
[warnings-ng] .left.> [plugin-util-api]

[plugin-util-api] .up.> [codingstyle]
[datatables-api] .> [jquery3-api]
[jquery3-api] <. [boostrap4-api]

[datatables-api] ..> [datatables-model]
[echarts-api] ..> [echarts-build-trends]
[echarts-api] .> [plugin-util-api]

skinparam legendBackgroundColor white

legend
|= |= Module type |
|<back:lightBlue>   </back>| Warnings plugin |
|<back:lightGreen>   </back>| New UI Plugins |
|<back:beige>   </back>| Java Libraries |

endlegend

@enduml

PlantUML version 1.2019.11(Sun Sep 22 12:02:15 CEST 2019)
(GPL source distribution)
Java Runtime: OpenJDK Runtime Environment
JVM: OpenJDK 64-Bit Server VM
Java Version: 11.0.4+10-b520.11
Operating System: Mac OS X
Default Encoding: UTF-8
Language: de
Country: DE
--></g></svg>
