<svg xmlns="http://www.w3.org/2000/svg" width="903" height="603" contentScriptType="application/ecmascript" contentStyleType="text/css" preserveAspectRatio="none" version="1.1" viewBox="0 0 903 603" zoomAndPan="magnify" style="width:903px;height:603px"><defs><filter id="fd7lnaj1hqi7k" width="300%" height="300%" x="-1" y="-1"><feGaussianBlur result="blurOut" stdDeviation="2"/><feColorMatrix in="blurOut" result="blurOut2" type="matrix" values="0 0 0 0 0 0 0 0 0 0 0 0 0 0 0 0 0 0 .4 0"/><feOffset dx="4" dy="4" in="blurOut2" result="blurOut3"/><feBlend in="SourceGraphic" in2="blurOut3" mode="normal"/></filter><filter id="bd7lnaj1hqi7k0" width="1" height="1" x="0" y="0"><feFlood flood-color="#ADD8E6" result="flood"/><feComposite in="SourceGraphic" in2="flood" operator="over"/></filter><filter id="bd7lnaj1hqi7k1" width="1" height="1" x="0" y="0"><feFlood flood-color="#90EE90" result="flood"/><feComposite in="SourceGraphic" in2="flood" operator="over"/></filter><filter id="bd7lnaj1hqi7k2" width="1" height="1" x="0" y="0"><feFlood flood-color="beige" result="flood"/><feComposite in="SourceGraphic" in2="flood" operator="over"/></filter></defs><g><rect width="145" height="46.488" x="298" y="8" fill="beige" stroke="#A80036" stroke-width="1.5" filter="url(#fd7lnaj1hqi7k)"/><rect width="15" height="10" x="423" y="13" fill="beige" stroke="#A80036" stroke-width="1.5"/><rect width="4" height="2" x="421" y="15" fill="beige" stroke="#A80036" stroke-width="1.5"/><rect width="4" height="2" x="421" y="19" fill="beige" stroke="#A80036" stroke-width="1.5"/><text x="313" y="41.535" fill="#000" font-family="sans-serif" font-size="14" lengthAdjust="spacingAndGlyphs" textLength="105">analysis-model</text><rect width="118" height="46.488" x="144.5" y="8" fill="beige" stroke="#A80036" stroke-width="1.5" filter="url(#fd7lnaj1hqi7k)"/><rect width="15" height="10" x="242.5" y="13" fill="beige" stroke="#A80036" stroke-width="1.5"/><rect width="4" height="2" x="240.5" y="15" fill="beige" stroke="#A80036" stroke-width="1.5"/><rect width="4" height="2" x="240.5" y="19" fill="beige" stroke="#A80036" stroke-width="1.5"/><text x="159.5" y="41.535" fill="#000" font-family="sans-serif" font-size="14" lengthAdjust="spacingAndGlyphs" textLength="78">codingstyle</text><rect width="174" height="46.488" x="283.5" y="114" fill="#ADD8E6" stroke="#A80036" stroke-width="1.5" filter="url(#fd7lnaj1hqi7k)"/><rect width="15" height="10" x="437.5" y="119" fill="#ADD8E6" stroke="#A80036" stroke-width="1.5"/><rect width="4" height="2" x="435.5" y="121" fill="#ADD8E6" stroke="#A80036" stroke-width="1.5"/><rect width="4" height="2" x="435.5" y="125" fill="#ADD8E6" stroke="#A80036" stroke-width="1.5"/><text x="298.5" y="147.535" fill="#000" font-family="sans-serif" font-size="14" lengthAdjust="spacingAndGlyphs" textLength="134">analysis-model-api</text><rect width="140" height="46.488" x="547.5" y="326" fill="#90EE90" stroke="#A80036" stroke-width="1.5" filter="url(#fd7lnaj1hqi7k)"/><rect width="15" height="10" x="667.5" y="331" fill="#90EE90" stroke="#A80036" stroke-width="1.5"/><rect width="4" height="2" x="665.5" y="333" fill="#90EE90" stroke="#A80036" stroke-width="1.5"/><rect width="4" height="2" x="665.5" y="337" fill="#90EE90" stroke="#A80036" stroke-width="1.5"/><text x="562.5" y="359.535" fill="#000" font-family="sans-serif" font-size="14" lengthAdjust="spacingAndGlyphs" textLength="100">boostrap4-api</text><rect width="140" height="46.488" x="215.5" y="326" fill="#90EE90" stroke="#A80036" stroke-width="1.5" filter="url(#fd7lnaj1hqi7k)"/><rect width="15" height="10" x="335.5" y="331" fill="#90EE90" stroke="#A80036" stroke-width="1.5"/><rect width="4" height="2" x="333.5" y="333" fill="#90EE90" stroke="#A80036" stroke-width="1.5"/><rect width="4" height="2" x="333.5" y="337" fill="#90EE90" stroke="#A80036" stroke-width="1.5"/><text x="230.5" y="359.535" fill="#000" font-family="sans-serif" font-size="14" lengthAdjust="spacingAndGlyphs" textLength="100">datatables-api</text><rect width="121" height="46.488" x="391" y="326" fill="#90EE90" stroke="#A80036" stroke-width="1.5" filter="url(#fd7lnaj1hqi7k)"/><rect width="15" height="10" x="492" y="331" fill="#90EE90" stroke="#A80036" stroke-width="1.5"/><rect width="4" height="2" x="490" y="333" fill="#90EE90" stroke="#A80036" stroke-width="1.5"/><rect width="4" height="2" x="490" y="337" fill="#90EE90" stroke="#A80036" stroke-width="1.5"/><text x="406" y="359.535" fill="#000" font-family="sans-serif" font-size="14" lengthAdjust="spacingAndGlyphs" textLength="81">jquery3-api</text><rect width="169" height="46.488" x="723" y="326" fill="#90EE90" stroke="#A80036" stroke-width="1.5" filter="url(#fd7lnaj1hqi7k)"/><rect width="15" height="10" x="872" y="331" fill="#90EE90" stroke="#A80036" stroke-width="1.5"/><rect width="4" height="2" x="870" y="333" fill="#90EE90" stroke="#A80036" stroke-width="1.5"/><rect width="4" height="2" x="870" y="337" fill="#90EE90" stroke="#A80036" stroke-width="1.5"/><text x="738" y="359.535" fill="#000" font-family="sans-serif" font-size="14" lengthAdjust="spacingAndGlyphs" textLength="129">font-awesome-api</text><rect width="119" height="46.488" x="61" y="326" fill="#90EE90" stroke="#A80036" stroke-width="1.5" filter="url(#fd7lnaj1hqi7k)"/><rect width="15" height="10" x="160" y="331" fill="#90EE90" stroke="#A80036" stroke-width="1.5"/><rect width="4" height="2" x="158" y="333" fill="#90EE90" stroke="#A80036" stroke-width="1.5"/><rect width="4" height="2" x="158" y="337" fill="#90EE90" stroke="#A80036" stroke-width="1.5"/><text x="76" y="359.535" fill="#000" font-family="sans-serif" font-size="14" lengthAdjust="spacingAndGlyphs" textLength="79">echarts-api</text><rect width="143" height="46.488" x="129" y="220" fill="#90EE90" stroke="#A80036" stroke-width="1.5" filter="url(#fd7lnaj1hqi7k)"/><rect width="15" height="10" x="252" y="225" fill="#90EE90" stroke="#A80036" stroke-width="1.5"/><rect width="4" height="2" x="250" y="227" fill="#90EE90" stroke="#A80036" stroke-width="1.5"/><rect width="4" height="2" x="250" y="231" fill="#90EE90" stroke="#A80036" stroke-width="1.5"/><text x="144" y="253.535" fill="#000" font-family="sans-serif" font-size="14" lengthAdjust="spacingAndGlyphs" textLength="103">plugin-util-api</text><rect width="129" height="46.488" x="307" y="220" fill="#ADD8E6" stroke="#A80036" stroke-width="1.5" filter="url(#fd7lnaj1hqi7k)"/><rect width="15" height="10" x="416" y="225" fill="#ADD8E6" stroke="#A80036" stroke-width="1.5"/><rect width="4" height="2" x="414" y="227" fill="#ADD8E6" stroke="#A80036" stroke-width="1.5"/><rect width="4" height="2" x="414" y="231" fill="#ADD8E6" stroke="#A80036" stroke-width="1.5"/><text x="322" y="253.535" fill="#000" font-family="sans-serif" font-size="14" lengthAdjust="spacingAndGlyphs" textLength="89">warnings-ng</text><rect width="102" height="46.488" x="471.5" y="220" fill="#ADD8E6" stroke="#A80036" stroke-width="1.5" filter="url(#fd7lnaj1hqi7k)"/><rect width="15" height="10" x="553.5" y="225" fill="#ADD8E6" stroke="#A80036" stroke-width="1.5"/><rect width="4" height="2" x="551.5" y="227" fill="#ADD8E6" stroke="#A80036" stroke-width="1.5"/><rect width="4" height="2" x="551.5" y="231" fill="#ADD8E6" stroke="#A80036" stroke-width="1.5"/><text x="486.5" y="253.535" fill="#000" font-family="sans-serif" font-size="14" lengthAdjust="spacingAndGlyphs" textLength="62">forensics</text><rect width="128" height="46.488" x="608.5" y="220" fill="#ADD8E6" stroke="#A80036" stroke-width="1.5" filter="url(#fd7lnaj1hqi7k)"/><rect width="15" height="10" x="716.5" y="225" fill="#ADD8E6" stroke="#A80036" stroke-width="1.5"/><rect width="4" height="2" x="714.5" y="227" fill="#ADD8E6" stroke="#A80036" stroke-width="1.5"/><rect width="4" height="2" x="714.5" y="231" fill="#ADD8E6" stroke="#A80036" stroke-width="1.5"/><text x="623.5" y="253.535" fill="#000" font-family="sans-serif" font-size="14" lengthAdjust="spacingAndGlyphs" textLength="88">git-forensics</text><rect width="103" height="46.488" x="772" y="220" fill="#90EE90" stroke="#A80036" stroke-width="1.5" filter="url(#fd7lnaj1hqi7k)"/><rect width="15" height="10" x="855" y="225" fill="#90EE90" stroke="#A80036" stroke-width="1.5"/><rect width="4" height="2" x="853" y="227" fill="#90EE90" stroke="#A80036" stroke-width="1.5"/><rect width="4" height="2" x="853" y="231" fill="#90EE90" stroke="#A80036" stroke-width="1.5"/><text x="787" y="253.535" fill="#000" font-family="sans-serif" font-size="14" lengthAdjust="spacingAndGlyphs" textLength="63">git-client</text><rect width="162" height="46.488" x="226.5" y="432" fill="#FEFECE" stroke="#A80036" stroke-width="1.5" filter="url(#fd7lnaj1hqi7k)"/><rect width="15" height="10" x="368.5" y="437" fill="#FEFECE" stroke="#A80036" stroke-width="1.5"/><rect width="4" height="2" x="366.5" y="439" fill="#FEFECE" stroke="#A80036" stroke-width="1.5"/><rect width="4" height="2" x="366.5" y="443" fill="#FEFECE" stroke="#A80036" stroke-width="1.5"/><text x="241.5" y="465.535" fill="#000" font-family="sans-serif" font-size="14" lengthAdjust="spacingAndGlyphs" textLength="122">datatables-model</text><rect width="185" height="46.488" x="6" y="432" fill="#FEFECE" stroke="#A80036" stroke-width="1.5" filter="url(#fd7lnaj1hqi7k)"/><rect width="15" height="10" x="171" y="437" fill="#FEFECE" stroke="#A80036" stroke-width="1.5"/><rect width="4" height="2" x="169" y="439" fill="#FEFECE" stroke="#A80036" stroke-width="1.5"/><rect width="4" height="2" x="169" y="443" fill="#FEFECE" stroke="#A80036" stroke-width="1.5"/><text x="21" y="465.535" fill="#000" font-family="sans-serif" font-size="14" lengthAdjust="spacingAndGlyphs" textLength="145">echarts-build-trends</text><path id="codingstyle&lt;-analysis-model" fill="none" stroke="#A80036" stroke-dasharray="7 7" stroke-width="1" d="M267.8,31 C277.85,31 287.91,31 297.96,31"/><polygon fill="#A80036" stroke="#A80036" stroke-width="1" points="262.54 31 271.54 35 267.54 31 271.54 27 262.54 31"/><path id="analysis-model&lt;-analysis-model-api" fill="none" stroke="#A80036" stroke-dasharray="7 7" stroke-width="1" d="M370.5,59.19 C370.5,76.26 370.5,97.99 370.5,113.98"/><polygon fill="#A80036" stroke="#A80036" stroke-width="1" points="370.5 54.06 366.5 63.06 370.5 59.06 374.5 63.06 370.5 54.06"/><path id="analysis-model-api&lt;-warnings-ng" fill="none" stroke="#A80036" stroke-dasharray="7 7" stroke-width="1" d="M370.76,165.19 C370.93,182.26 371.13,203.99 371.29,219.98"/><polygon fill="#A80036" stroke="#A80036" stroke-width="1" points="370.71 160.06 366.787 169.094 370.753 165.06 374.787 169.025 370.71 160.06"/><path id="warnings-ng-&gt;forensics" fill="none" stroke="#A80036" stroke-dasharray="7 7" stroke-width="1" d="M436.09,243 C446.05,243 456.02,243 465.98,243"/><polygon fill="#A80036" stroke="#A80036" stroke-width="1" points="471.19 243 462.19 239 466.19 243 462.19 247 471.19 243"/><path id="forensics&lt;-git-forensics" fill="none" stroke="#A80036" stroke-dasharray="7 7" stroke-width="1" d="M578.92,243 C588.77,243 598.63,243 608.48,243"/><polygon fill="#A80036" stroke="#A80036" stroke-width="1" points="573.77 243 582.77 247 578.77 243 582.77 239 573.77 243"/><path id="git-forensics-&gt;git-client" fill="none" stroke="#A80036" stroke-dasharray="7 7" stroke-width="1" d="M736.79,243 C746.7,243 756.6,243 766.5,243"/><polygon fill="#A80036" stroke="#A80036" stroke-width="1" points="771.68 243 762.68 239 766.68 243 762.68 247 771.68 243"/><path id="warnings-ng-&gt;jquery3-api" fill="none" stroke="#A80036" stroke-dasharray="7 7" stroke-width="1" d="M388.47,266.06 C400.98,282.33 418.06,304.53 431.28,321.72"/><polygon fill="#A80036" stroke="#A80036" stroke-width="1" points="434.56 325.98 432.261 316.403 431.519 322.011 425.911 321.269 434.56 325.98"/><path id="warnings-ng-&gt;datatables-api" fill="none" stroke="#A80036" stroke-dasharray="7 7" stroke-width="1" d="M353.26,266.06 C339.81,282.33 321.45,304.53 307.23,321.72"/><polygon fill="#A80036" stroke="#A80036" stroke-width="1" points="303.71 325.98 312.525 321.588 306.894 322.125 306.357 316.494 303.71 325.98"/><path id="warnings-ng-&gt;boostrap4-api" fill="none" stroke="#A80036" stroke-dasharray="7 7" stroke-width="1" d="M423.67,266.06 C463.87,283.05 519.38,306.52 560.69,323.98"/><polygon fill="#A80036" stroke="#A80036" stroke-width="1" points="565.4 325.98 558.665 318.793 560.794 324.035 555.553 326.163 565.4 325.98"/><path id="warnings-ng-&gt;font-awesome-api" fill="none" stroke="#A80036" stroke-dasharray="7 7" stroke-width="1" d="M436.24,261.37 C442.41,262.96 448.57,264.53 454.5,266 C543.79,288.2 646.26,311.79 717.71,327.95"/><polygon fill="#A80036" stroke="#A80036" stroke-width="1" points="722.8 329.1 714.902 323.216 717.923 327.999 713.14 331.019 722.8 329.1"/><path id="warnings-ng-&gt;echarts-api" fill="none" stroke="#A80036" stroke-dasharray="7 7" stroke-width="1" d="M318.27,266.06 C277.25,283.05 220.62,306.52 178.46,323.98"/><polygon fill="#A80036" stroke="#A80036" stroke-width="1" points="173.65 325.98 183.496 326.226 178.268 324.064 180.43 318.837 173.65 325.98"/><path id="plugin-util-api&lt;-warnings-ng" fill="none" stroke="#A80036" stroke-dasharray="7 7" stroke-width="1" d="M277.43,243 C287.21,243 297,243 306.79,243"/><polygon fill="#A80036" stroke="#A80036" stroke-width="1" points="272.31 243 281.31 247 277.31 243 281.31 239 272.31 243"/><path id="codingstyle&lt;-plugin-util-api" fill="none" stroke="#A80036" stroke-dasharray="7 7" stroke-width="1" d="M203.11,59.26 C202.51,101.32 201.37,181.21 200.82,219.9"/><polygon fill="#A80036" stroke="#A80036" stroke-width="1" points="203.18 54.08 199.052 63.022 203.109 59.08 207.051 63.136 203.18 54.08"/><path id="datatables-api-&gt;jquery3-api" fill="none" stroke="#A80036" stroke-dasharray="7 7" stroke-width="1" d="M355.53,349 C365.53,349 375.54,349 385.54,349"/><polygon fill="#A80036" stroke="#A80036" stroke-width="1" points="390.77 349 381.77 345 385.77 349 381.77 353 390.77 349"/><path id="jquery3-api&lt;-boostrap4-api" fill="none" stroke="#A80036" stroke-dasharray="7 7" stroke-width="1" d="M517.32,349 C527.25,349 537.18,349 547.12,349"/><polygon fill="#A80036" stroke="#A80036" stroke-width="1" points="512.13 349 521.13 353 517.13 349 521.13 345 512.13 349"/><path id="datatables-api-&gt;datatables-model" fill="none" stroke="#A80036" stroke-dasharray="7 7" stroke-width="1" d="M290.17,372.06 C293.55,388.05 298.15,409.78 301.75,426.84"/><polygon fill="#A80036" stroke="#A80036" stroke-width="1" points="302.84 431.98 304.879 422.344 301.799 427.089 297.054 424.01 302.84 431.98"/><path id="echarts-api-&gt;echarts-build-trends" fill="none" stroke="#A80036" stroke-dasharray="7 7" stroke-width="1" d="M115.83,372.06 C112.45,388.05 107.85,409.78 104.25,426.84"/><polygon fill="#A80036" stroke="#A80036" stroke-width="1" points="103.16 431.98 108.946 424.01 104.201 427.089 101.121 422.344 103.16 431.98"/><path id="echarts-api-&gt;plugin-util-api" fill="none" stroke="#A80036" stroke-dasharray="7 7" stroke-width="1" d="M137.44,325.98 C149.95,309.71 167.03,287.51 180.26,270.31"/><polygon fill="#A80036" stroke="#A80036" stroke-width="1" points="183.53 266.06 174.862 270.737 180.473 270.017 181.193 275.628 183.53 266.06"/><rect width="144" height="96.441" x="382.5" y="496" fill="#FFF" stroke="#000" stroke-width="1" rx="5" ry="5"/><text x="405.5" y="516.535" fill="#000" font-family="sans-serif" font-size="14" font-weight="bold" lengthAdjust="spacingAndGlyphs" textLength="89">Module type</text><text x="404.5" y="533.023" fill="#000" font-family="sans-serif" font-size="14" lengthAdjust="spacingAndGlyphs" textLength="112">Warnings plugin</text><text x="404.5" y="549.512" fill="#000" font-family="sans-serif" font-size="14" lengthAdjust="spacingAndGlyphs" textLength="101">New UI Plugins</text><text x="404.5" y="566" fill="#000" font-family="sans-serif" font-size="14" lengthAdjust="spacingAndGlyphs" textLength="90">Java Libraries</text><line x1="388.5" x2="520.5" y1="503" y2="503" stroke="#000" stroke-width="1"/><line x1="388.5" x2="520.5" y1="519.488" y2="519.488" stroke="#000" stroke-width="1"/><line x1="388.5" x2="520.5" y1="535.977" y2="535.977" stroke="#000" stroke-width="1"/><line x1="388.5" x2="520.5" y1="552.465" y2="552.465" stroke="#000" stroke-width="1"/><line x1="388.5" x2="520.5" y1="568.953" y2="568.953" stroke="#000" stroke-width="1"/><line x1="388.5" x2="388.5" y1="503" y2="568.953" stroke="#000" stroke-width="1"/><line x1="400.5" x2="400.5" y1="503" y2="568.953" stroke="#000" stroke-width="1"/><line x1="520.5" x2="520.5" y1="503" y2="568.953" stroke="#000" stroke-width="1"/></g></svg>