<svg xmlns="http://www.w3.org/2000/svg" width="903" height="391" contentScriptType="application/ecmascript" contentStyleType="text/css" preserveAspectRatio="none" version="1.1" viewBox="0 0 903 391" zoomAndPan="magnify" style="width:903px;height:391px"><defs><filter id="f1f77wrw64n7dj" width="300%" height="300%" x="-1" y="-1"><feGaussianBlur result="blurOut" stdDeviation="2"/><feColorMatrix in="blurOut" result="blurOut2" type="matrix" values="0 0 0 0 0 0 0 0 0 0 0 0 0 0 0 0 0 0 .4 0"/><feOffset dx="4" dy="4" in="blurOut2" result="blurOut3"/><feBlend in="SourceGraphic" in2="blurOut3" mode="normal"/></filter><filter id="b1f77wrw64n7dj0" width="1" height="1" x="0" y="0"><feFlood flood-color="#ADD8E6" result="flood"/><feComposite in="SourceGraphic" in2="flood" operator="over"/></filter><filter id="b1f77wrw64n7dj1" width="1" height="1" x="0" y="0"><feFlood flood-color="#90EE90" result="flood"/><feComposite in="SourceGraphic" in2="flood" operator="over"/></filter><filter id="b1f77wrw64n7dj2" width="1" height="1" x="0" y="0"><feFlood flood-color="beige" result="flood"/><feComposite in="SourceGraphic" in2="flood" operator="over"/></filter></defs><g><rect width="140" height="46.488" x="547.5" y="114" fill="#90EE90" stroke="#A80036" stroke-width="1.5" filter="url(#f1f77wrw64n7dj)"/><rect width="15" height="10" x="667.5" y="119" fill="#90EE90" stroke="#A80036" stroke-width="1.5"/><rect width="4" height="2" x="665.5" y="121" fill="#90EE90" stroke="#A80036" stroke-width="1.5"/><rect width="4" height="2" x="665.5" y="125" fill="#90EE90" stroke="#A80036" stroke-width="1.5"/><text x="562.5" y="147.535" fill="#000" font-family="sans-serif" font-size="14" lengthAdjust="spacingAndGlyphs" textLength="100">boostrap4-api</text><rect width="140" height="46.488" x="215.5" y="114" fill="#90EE90" stroke="#A80036" stroke-width="1.5" filter="url(#f1f77wrw64n7dj)"/><rect width="15" height="10" x="335.5" y="119" fill="#90EE90" stroke="#A80036" stroke-width="1.5"/><rect width="4" height="2" x="333.5" y="121" fill="#90EE90" stroke="#A80036" stroke-width="1.5"/><rect width="4" height="2" x="333.5" y="125" fill="#90EE90" stroke="#A80036" stroke-width="1.5"/><text x="230.5" y="147.535" fill="#000" font-family="sans-serif" font-size="14" lengthAdjust="spacingAndGlyphs" textLength="100">datatables-api</text><rect width="121" height="46.488" x="391" y="114" fill="#90EE90" stroke="#A80036" stroke-width="1.5" filter="url(#f1f77wrw64n7dj)"/><rect width="15" height="10" x="492" y="119" fill="#90EE90" stroke="#A80036" stroke-width="1.5"/><rect width="4" height="2" x="490" y="121" fill="#90EE90" stroke="#A80036" stroke-width="1.5"/><rect width="4" height="2" x="490" y="125" fill="#90EE90" stroke="#A80036" stroke-width="1.5"/><text x="406" y="147.535" fill="#000" font-family="sans-serif" font-size="14" lengthAdjust="spacingAndGlyphs" textLength="81">jquery3-api</text><rect width="169" height="46.488" x="723" y="114" fill="#90EE90" stroke="#A80036" stroke-width="1.5" filter="url(#f1f77wrw64n7dj)"/><rect width="15" height="10" x="872" y="119" fill="#90EE90" stroke="#A80036" stroke-width="1.5"/><rect width="4" height="2" x="870" y="121" fill="#90EE90" stroke="#A80036" stroke-width="1.5"/><rect width="4" height="2" x="870" y="125" fill="#90EE90" stroke="#A80036" stroke-width="1.5"/><text x="738" y="147.535" fill="#000" font-family="sans-serif" font-size="14" lengthAdjust="spacingAndGlyphs" textLength="129">font-awesome-api</text><rect width="119" height="46.488" x="61" y="114" fill="#90EE90" stroke="#A80036" stroke-width="1.5" filter="url(#f1f77wrw64n7dj)"/><rect width="15" height="10" x="160" y="119" fill="#90EE90" stroke="#A80036" stroke-width="1.5"/><rect width="4" height="2" x="158" y="121" fill="#90EE90" stroke="#A80036" stroke-width="1.5"/><rect width="4" height="2" x="158" y="125" fill="#90EE90" stroke="#A80036" stroke-width="1.5"/><text x="76" y="147.535" fill="#000" font-family="sans-serif" font-size="14" lengthAdjust="spacingAndGlyphs" textLength="79">echarts-api</text><rect width="143" height="46.488" x="129" y="8" fill="#90EE90" stroke="#A80036" stroke-width="1.5" filter="url(#f1f77wrw64n7dj)"/><rect width="15" height="10" x="252" y="13" fill="#90EE90" stroke="#A80036" stroke-width="1.5"/><rect width="4" height="2" x="250" y="15" fill="#90EE90" stroke="#A80036" stroke-width="1.5"/><rect width="4" height="2" x="250" y="19" fill="#90EE90" stroke="#A80036" stroke-width="1.5"/><text x="144" y="41.535" fill="#000" font-family="sans-serif" font-size="14" lengthAdjust="spacingAndGlyphs" textLength="103">plugin-util-api</text><rect width="129" height="46.488" x="347" y="8" fill="#ADD8E6" stroke="#A80036" stroke-width="1.5" filter="url(#f1f77wrw64n7dj)"/><rect width="15" height="10" x="456" y="13" fill="#ADD8E6" stroke="#A80036" stroke-width="1.5"/><rect width="4" height="2" x="454" y="15" fill="#ADD8E6" stroke="#A80036" stroke-width="1.5"/><rect width="4" height="2" x="454" y="19" fill="#ADD8E6" stroke="#A80036" stroke-width="1.5"/><text x="362" y="41.535" fill="#000" font-family="sans-serif" font-size="14" lengthAdjust="spacingAndGlyphs" textLength="89">warnings-ng</text><rect width="162" height="46.488" x="226.5" y="220" fill="#FEFECE" stroke="#A80036" stroke-width="1.5" filter="url(#f1f77wrw64n7dj)"/><rect width="15" height="10" x="368.5" y="225" fill="#FEFECE" stroke="#A80036" stroke-width="1.5"/><rect width="4" height="2" x="366.5" y="227" fill="#FEFECE" stroke="#A80036" stroke-width="1.5"/><rect width="4" height="2" x="366.5" y="231" fill="#FEFECE" stroke="#A80036" stroke-width="1.5"/><text x="241.5" y="253.535" fill="#000" font-family="sans-serif" font-size="14" lengthAdjust="spacingAndGlyphs" textLength="122">datatables-model</text><rect width="185" height="46.488" x="6" y="220" fill="#FEFECE" stroke="#A80036" stroke-width="1.5" filter="url(#f1f77wrw64n7dj)"/><rect width="15" height="10" x="171" y="225" fill="#FEFECE" stroke="#A80036" stroke-width="1.5"/><rect width="4" height="2" x="169" y="227" fill="#FEFECE" stroke="#A80036" stroke-width="1.5"/><rect width="4" height="2" x="169" y="231" fill="#FEFECE" stroke="#A80036" stroke-width="1.5"/><text x="21" y="253.535" fill="#000" font-family="sans-serif" font-size="14" lengthAdjust="spacingAndGlyphs" textLength="145">echarts-build-trends</text><path id="warnings-ng-&gt;jquery3-api" fill="none" stroke="#A80036" stroke-dasharray="7 7" stroke-width="1" d="M419.98,54.06 C426.19,70.19 434.64,92.15 441.22,109.28"/><polygon fill="#A80036" stroke="#A80036" stroke-width="1" points="443.03 113.98 443.526 104.144 441.232 109.314 436.062 107.02 443.03 113.98"/><path id="warnings-ng-&gt;datatables-api" fill="none" stroke="#A80036" stroke-dasharray="7 7" stroke-width="1" d="M384.78,54.06 C364.73,70.6 337.25,93.28 316.29,110.59"/><polygon fill="#A80036" stroke="#A80036" stroke-width="1" points="312.18 113.98 321.666 111.333 316.035 110.796 316.572 105.165 312.18 113.98"/><path id="warnings-ng-&gt;boostrap4-api" fill="none" stroke="#A80036" stroke-dasharray="7 7" stroke-width="1" d="M455.19,54.06 C488.64,70.95 534.77,94.23 569.3,111.66"/><polygon fill="#A80036" stroke="#A80036" stroke-width="1" points="573.88 113.98 567.658 106.345 569.419 111.721 564.044 113.483 573.88 113.98"/><path id="warnings-ng-&gt;font-awesome-api" fill="none" stroke="#A80036" stroke-dasharray="7 7" stroke-width="1" d="M476.01,48.94 C541.93,66.25 644.8,93.27 718.46,112.61"/><polygon fill="#A80036" stroke="#A80036" stroke-width="1" points="723.71 113.99 716.021 107.836 718.874 112.72 713.989 115.573 723.71 113.99"/><path id="boostrap4-api-&gt;font-awesome-api" fill="none" stroke="#A80036" stroke-dasharray="7 7" stroke-width="1" d="M687.64,137 C697.6,137 707.57,137 717.54,137"/><polygon fill="#A80036" stroke="#A80036" stroke-width="1" points="722.75 137 713.75 133 717.75 137 713.75 141 722.75 137"/><path id="warnings-ng-&gt;echarts-api" fill="none" stroke="#A80036" stroke-dasharray="7 7" stroke-width="1" d="M349.79,54.06 C301.4,71.35 234.25,95.35 185.13,112.9"/><polygon fill="#A80036" stroke="#A80036" stroke-width="1" points="180.13 114.69 189.952 115.417 184.836 113.002 187.251 107.886 180.13 114.69"/><path id="plugin-util-api&lt;-warnings-ng" fill="none" stroke="#A80036" stroke-dasharray="7 7" stroke-width="1" d="M277.45,31 C300.55,31 323.65,31 346.75,31"/><polygon fill="#A80036" stroke="#A80036" stroke-width="1" points="272.21 31 281.21 35 277.21 31 281.21 27 272.21 31"/><path id="datatables-api-&gt;jquery3-api" fill="none" stroke="#A80036" stroke-dasharray="7 7" stroke-width="1" d="M355.53,137 C365.53,137 375.54,137 385.54,137"/><polygon fill="#A80036" stroke="#A80036" stroke-width="1" points="390.77 137 381.77 133 385.77 137 381.77 141 390.77 137"/><path id="jquery3-api&lt;-boostrap4-api" fill="none" stroke="#A80036" stroke-dasharray="7 7" stroke-width="1" d="M517.32,137 C527.25,137 537.18,137 547.12,137"/><polygon fill="#A80036" stroke="#A80036" stroke-width="1" points="512.13 137 521.13 141 517.13 137 521.13 133 512.13 137"/><path id="datatables-api-&gt;datatables-model" fill="none" stroke="#A80036" stroke-dasharray="7 7" stroke-width="1" d="M290.17,160.06 C293.55,176.05 298.15,197.78 301.75,214.84"/><polygon fill="#A80036" stroke="#A80036" stroke-width="1" points="302.84 219.98 304.879 210.345 301.799 215.089 297.054 212.01 302.84 219.98"/><path id="echarts-api-&gt;echarts-build-trends" fill="none" stroke="#A80036" stroke-dasharray="7 7" stroke-width="1" d="M115.83,160.06 C112.45,176.05 107.85,197.78 104.25,214.84"/><polygon fill="#A80036" stroke="#A80036" stroke-width="1" points="103.16 219.98 108.946 212.01 104.201 215.089 101.121 210.345 103.16 219.98"/><path id="echarts-api-&gt;plugin-util-api" fill="none" stroke="#A80036" stroke-dasharray="7 7" stroke-width="1" d="M137.44,113.98 C149.95,97.71 167.03,75.51 180.26,58.31"/><polygon fill="#A80036" stroke="#A80036" stroke-width="1" points="183.53 54.06 174.862 58.737 180.473 58.017 181.193 63.628 183.53 54.06"/><rect width="144" height="96.441" x="382.5" y="284" fill="#FFF" stroke="#000" stroke-width="1" rx="5" ry="5"/><text x="405.5" y="304.535" fill="#000" font-family="sans-serif" font-size="14" font-weight="bold" lengthAdjust="spacingAndGlyphs" textLength="89">Module type</text><text x="404.5" y="321.023" fill="#000" font-family="sans-serif" font-size="14" lengthAdjust="spacingAndGlyphs" textLength="112">Warnings plugin</text><text x="404.5" y="337.512" fill="#000" font-family="sans-serif" font-size="14" lengthAdjust="spacingAndGlyphs" textLength="101">New UI Plugins</text><text x="404.5" y="354" fill="#000" font-family="sans-serif" font-size="14" lengthAdjust="spacingAndGlyphs" textLength="90">Java Libraries</text><line x1="388.5" x2="520.5" y1="291" y2="291" stroke="#000" stroke-width="1"/><line x1="388.5" x2="520.5" y1="307.488" y2="307.488" stroke="#000" stroke-width="1"/><line x1="388.5" x2="520.5" y1="323.977" y2="323.977" stroke="#000" stroke-width="1"/><line x1="388.5" x2="520.5" y1="340.465" y2="340.465" stroke="#000" stroke-width="1"/><line x1="388.5" x2="520.5" y1="356.953" y2="356.953" stroke="#000" stroke-width="1"/><line x1="388.5" x2="388.5" y1="291" y2="356.953" stroke="#000" stroke-width="1"/><line x1="400.5" x2="400.5" y1="291" y2="356.953" stroke="#000" stroke-width="1"/><line x1="520.5" x2="520.5" y1="291" y2="356.953" stroke="#000" stroke-width="1"/></g></svg>