<?xml version="1.0" encoding="UTF-8" standalone="no"?>
<svg
        aria-hidden="true"
        focusable="false"
        data-prefix="far"
        data-icon="clone"
        class="svg-inline--fa fa-clone fa-w-16"
        role="img"
        viewBox="0 0 512 512"
        version="1.1"
        id="svg826"
        sodipodi:docname="clone-regular.svg"
        inkscape:version="1.1 (c4e8f9e, 2021-05-24)"
        xmlns:inkscape="http://www.inkscape.org/namespaces/inkscape"
        xmlns:sodipodi="http://sodipodi.sourceforge.net/DTD/sodipodi-0.dtd"
        xmlns="http://www.w3.org/2000/svg"
>
  <defs
     id="defs830" />
  <sodipodi:namedview
     id="namedview828"
     pagecolor="#ffffff"
     bordercolor="#666666"
     borderopacity="1.0"
     inkscape:pageshadow="2"
     inkscape:pageopacity="0.0"
     inkscape:pagecheckerboard="0"
     showgrid="false"
     inkscape:zoom="1.7050781"
     inkscape:cx="255.70676"
     inkscape:cy="255.70676"
     inkscape:window-width="2560"
     inkscape:window-height="1440"
     inkscape:window-x="0"
     inkscape:window-y="0"
     inkscape:window-maximized="0"
     inkscape:current-layer="svg826" />
  <path
     fill="currentColor"
     d="M464 0H144c-26.51 0-48 21.49-48 48v48H48c-26.51 0-48 21.49-48 48v320c0 26.51 21.49 48 48 48h320c26.51 0 48-21.49 48-48v-48h48c26.51 0 48-21.49 48-48V48c0-26.51-21.49-48-48-48zM362 464H54a6 6 0 0 1-6-6V150a6 6 0 0 1 6-6h42v224c0 26.51 21.49 48 48 48h224v42a6 6 0 0 1-6 6zm96-96H150a6 6 0 0 1-6-6V54a6 6 0 0 1 6-6h308a6 6 0 0 1 6 6v308a6 6 0 0 1-6 6z"
     id="path824"
     style="fill:#b4b4b4;fill-opacity:1"
     inkscape:export-filename="/Users/hafner/2.png"
     inkscape:export-xdpi="4.5000005"
     inkscape:export-ydpi="4.5000005" />
</svg>
