<?xml version="1.0" encoding="UTF-8" standalone="no"?>
<svg
        aria-hidden="true"
        focusable="false"
        data-prefix="fas"
        data-icon="clipboard-check"
        class="svg-inline--fa fa-clipboard-check fa-w-12"
        role="img"
        viewBox="0 0 384 512"
        version="1.1"
        id="svg826"
        sodipodi:docname="clipboard-check-solid.svg"
        inkscape:version="1.1 (c4e8f9e, 2021-05-24)"
        xmlns:inkscape="http://www.inkscape.org/namespaces/inkscape"
        xmlns:sodipodi="http://sodipodi.sourceforge.net/DTD/sodipodi-0.dtd"
        xmlns="http://www.w3.org/2000/svg"
>
  <defs
     id="defs830" />
  <sodipodi:namedview
     id="namedview828"
     pagecolor="#ffffff"
     bordercolor="#666666"
     borderopacity="1.0"
     inkscape:pageshadow="2"
     inkscape:pageopacity="0.0"
     inkscape:pagecheckerboard="0"
     showgrid="false"
     inkscape:zoom="1.7050781"
     inkscape:cx="191.78007"
     inkscape:cy="255.70676"
     inkscape:window-width="2560"
     inkscape:window-height="1440"
     inkscape:window-x="0"
     inkscape:window-y="0"
     inkscape:window-maximized="0"
     inkscape:current-layer="svg826" />
  <path
     fill="currentColor"
     d="M336 64h-80c0-35.3-28.7-64-64-64s-64 28.7-64 64H48C21.5 64 0 85.5 0 112v352c0 26.5 21.5 48 48 48h288c26.5 0 48-21.5 48-48V112c0-26.5-21.5-48-48-48zM192 40c13.3 0 24 10.7 24 24s-10.7 24-24 24-24-10.7-24-24 10.7-24 24-24zm121.2 231.8l-143 141.8c-4.7 4.7-12.3 4.6-17-.1l-82.6-83.3c-4.7-4.7-4.6-12.3.1-17L99.1 285c4.7-4.7 12.3-4.6 17 .1l46 46.4 106-105.2c4.7-4.7 12.3-4.6 17 .1l28.2 28.4c4.7 4.8 4.6 12.3-.1 17z"
     id="path824"
     style="fill:#b4b4b4;fill-opacity:1"
     inkscape:export-filename="/Users/hafner/2.png"
     inkscape:export-xdpi="4.5000005"
     inkscape:export-ydpi="4.5000005" />
</svg>
