<svg height="115.08543mm" viewBox="0 0 101.70971 115.08543" width="101.70971mm" xmlns="http://www.w3.org/2000/svg"><linearGradient id="a" gradientTransform="scale(.9958592 1.004158)" gradientUnits="userSpaceOnUse" x1="302.12592" x2="283.48618" y1="241.56277" y2="263.96793"><stop offset="0" stop-color="#fff"/><stop offset="1" stop-color="#444343"/></linearGradient><g transform="matrix(.26458333 0 0 .26458333 -18.817357 -8.337867)"><path d="m266.67 289.6c9.5556 34.667 24.444 63.067 44.667 92.4 24.444 32.889 60.889 59.778 97.333 82.667 10.667 3.111 23.333 2.2222 36-2.6667 8.2222-8.8889 11.778-20.444 10.667-32.667-17.556-37.111-32.111-73.556-59.667-104.33-30.667-29.111-52.334-47.356-93.667-67.133l-16 17.467-19.333 14.267z" fill="#4d4d4d"/><path d="m310.01 274c-2.072 7.2853 37.149 32.235 70.113 72.585 16.953 24.284 56.794 83.298 61.879 77.88-9.5554-33.691-28.806-60.64-49.642-92.209-28.255-21.856-48.444-47.047-82.35-58.256z" fill="#d0f2d0" opacity=".2"/><path d="m254 272 17-13.8 15-16.2 16 15.6-16.2 18.2-19.2 14.6z" fill="url(#a)" opacity=".7"/></g><g transform="translate(-137.744287 -150.577127)"><path d="m213.06423 180.56282a35.136787 34.823071 0 0 1 -34.70691 34.82046 35.136787 34.823071 0 0 1 -35.55614-33.96844 35.136787 34.823071 0 0 1 33.83688-35.65164 35.136787 34.823071 0 0 1 36.3841 33.09609" stroke-width=".310568" transform="matrix(.99961975 .02757464 -.02757464 .99961975 0 0)"/><path d="m204.6054 180.91872a26.753119 26.514256 0 0 1 -26.42581 26.51227 26.753119 26.514256 0 0 1 -27.07242-25.86355 26.753119 26.514256 0 0 1 25.76338-27.14512 26.753119 26.514256 0 0 1 27.70282 25.19933" fill="#fff" stroke-width=".236466" transform="matrix(.99961975 .02757464 -.02757464 .99961975 0 0)"/><path d="m195.58311 186.32655q0 .74082-.54137 1.28218-.54137.54137-1.28219.54137h-6.38241q0 4.8723-1.90904 8.26296l5.92654 5.95504q.54137.54136.54137 1.28218 0 .74082-.54137 1.28219-.51288.54136-1.28218.54136-.76931 0-1.28219-.54136l-5.64161-5.61312q-.14246.14247-.42739.37041-.28493.22795-1.19671.81205-.91177.5841-1.85204 1.04-.94027.45588-2.33642.82629-1.39616.37041-2.76382.37041v-25.52971h-3.64711v25.52971q-1.45314 0-2.89203-.38466-1.4389-.38465-2.4789-.94027-1.03998-.55561-1.88053-1.11123-.84054-.55561-1.23944-.92601l-.42739-.39891-5.21423 5.89805q-.56985.59835-1.36766.59835-.68383 0-1.22519-.45589-.54137-.51286-.58411-1.26793-.0427-.75506.44164-1.32492l5.75558-6.46791q-1.65259-3.2482-1.65259-7.80708h-6.38243q-.74081 0-1.28219-.54137-.54136-.54136-.54136-1.28218 0-.74081.54136-1.28219.54138-.54136 1.28219-.54136h6.38243v-8.37693l-4.92929-4.92929q-.54136-.54137-.54136-1.28218 0-.74083.54136-1.28218.54137-.54138 1.28219-.54138.74082 0 1.28218.54138l4.92929 4.92928h24.04807l4.92929-4.92928q.54136-.54138 1.28219-.54138.74081 0 1.28217.54138.54137.54135.54137 1.28218 0 .74081-.54137 1.28218l-4.92927 4.92929v8.37693h6.38241q.74082 0 1.28219.54136.54137.54138.54137 1.28219zm-13.67664-16.41195h-18.23549q0-3.78956 2.66409-6.45366 2.66408-2.6641 6.45365-2.6641 3.78956 0 6.45366 2.6641 2.66409 2.6641 2.66409 6.45366z" fill="#f00" stroke-width=".028493"/><path d="m156.35035 167.87997c11.51923-9.51742 22.72156-8.39347 33.08248-1.58036 9.02561 8.39346 11.41388 19.63181 4.63576 31.5021-2.19503.49166-2.67779-8.76222-4.06936-13.32781-1.49697-4.0388-4.8509-8.86758-7.52004-11.22065-3.23092-2.35308-6.72544-3.23092-10.57544-3.76656-5.74644-.43022-15.11448.53558-15.5534-1.60672z" fill="#7f7f7f" opacity=".15"/></g></svg>
